# xmcd
#
# Track frame offsets: 
#        150
#        20256
#        36554
#        57269
#        82688
#        105882
#        129534
#        155154
#        175627
#        194538
#
# Disc length: 2860 seconds
#
# Revision: 0
# Processed by: cddbd v1.5.2PL0 Copyright (c) Steve Scherf et al.
# Submitted via: ExactAudioCopyFreeDBPlugin 1.0
#
DISCID=770b2a0a
DTITLE=Khanh Ha - Chieu phi truong 
DYEAR=1900
DGENRE=
TTITLE0=lang le noi nay
TTITLE1=Rung rung le
TTITLE2=Nguyen Khang - Doan khuc cuoi cho em
TTITLE3=Con mua ha
TTITLE4=Rieng mot goc troi
TTITLE5=Chieu phi truong
TTITLE6=Mat le cho nguoi
TTITLE7=Nguyen Khang - Nguoi nhu co quen
TTITLE8=Da bao lan
TTITLE9=Khong con ai yeu anh
EXTD=
EXTT0=
EXTT1=
EXTT2=
EXTT3=
EXTT4=
EXTT5=
EXTT6=
EXTT7=
EXTT8=
EXTT9=
PLAYORDER=
